# xmcd
#
# Track frame offsets:
#  150
#  14763
#  26663
#  39548
#  50773
#  63030
#  77055
#  92200
#  104070
#  116250
#  129625
#  142340
#
# Disc length: 2062 seconds
#
# Revision: 0
# Processed by: cddbd v1.4PL0 Copyright (c) Steve Scherf et al.
# Submitted via: AltoMP3_Maker 3.0
#
DISCID=ad080c0c
DTITLE=Jerry Reed - All Time Greatest Hits (3)
DYEAR=1900
DGENRE=
TTITLE0=Mule Skinner Blues (Blue Yodel #8)
TTITLE1=Sixteen Tons
TTITLE2=Folsom Prison Blues
TTITLE3=A Worried Man
TTITLE4=Don't Think Twice (It's All Right)
TTITLE5=Early Morning Rain
TTITLE6=Wayfaring Stranger
TTITLE7=In The Pines
TTITLE8=House Of The Rising Sun
TTITLE9=Goodnight, Irene
TTITLE10=Sittin On Top Of The World
TTITLE11=Georgia On My Mind
EXTD=
EXTT0=
EXTT1=
EXTT2=
EXTT3=
EXTT4=
EXTT5=
EXTT6=
EXTT7=
EXTT8=
EXTT9=
EXTT10=
EXTT11=
PLAYORDER=
